PathFileType	4	(X/Y/Z)	/Users/itak/Documents/Research/Walk-IL/dataset/trc/00134_00007.trc
DataRate	CameraRate	NumFrames	NumMarkers	Units	OrigDataRate	OrigDataStartFrame	OrigNumFrames
100.000000	100.000000	4	53	mm	100.000000	0	742
Frame#	Time	RPSI			LPSI			L3			STRN			T10			C7			CLAV			RBAK			LBAK			LSHO			LUPA			LAEL			LAOL			LWTS			LWPS			LFRA			LIFD			LHPS			LHTS			RSHO			RUPA			RAEL			RAOL			RWTS			RWPS			RFRA			RIFD			RHTS			RHPS			RBHD			LFHD			RFHD			LBHD			LHIP			RHIP			RASI			LASI			LKNE			LTHI			LANK			LTIP			LTOE			LMT1			LMT5			LHEE			RKNE			RTHI			RANK			RTIP			RTOE			RMT1			RMT5			RHEE			
		X1	Y1	Z1	X2	Y2	Z2	X3	Y3	Z3	X4	Y4	Z4	X5	Y5	Z5	X6	Y6	Z6	X7	Y7	Z7	X8	Y8	Z8	X9	Y9	Z9	X10	Y10	Z10	X11	Y11	Z11	X12	Y12	Z12	X13	Y13	Z13	X14	Y14	Z14	X15	Y15	Z15	X16	Y16	Z16	X17	Y17	Z17	X18	Y18	Z18	X19	Y19	Z19	X20	Y20	Z20	X21	Y21	Z21	X22	Y22	Z22	X23	Y23	Z23	X24	Y24	Z24	X25	Y25	Z25	X26	Y26	Z26	X27	Y27	Z27	X28	Y28	Z28	X29	Y29	Z29	X30	Y30	Z30	X31	Y31	Z31	X32	Y32	Z32	X33	Y33	Z33	X34	Y34	Z34	X35	Y35	Z35	X36	Y36	Z36	X37	Y37	Z37	X38	Y38	Z38	X39	Y39	Z39	X40	Y40	Z40	X41	Y41	Z41	X42	Y42	Z42	X43	Y43	Z43	X44	Y44	Z44	X45	Y45	Z45	X46	Y46	Z46	X47	Y47	Z47	X48	Y48	Z48	X49	Y49	Z49	X50	Y50	Z50	X51	Y51	Z51	X52	Y52	Z52	X53	Y53	Z53	

1	0	270.3871154785156	1132.687866210938	1140.568359375	266.5403137207031	1134.24169921875	1275.187377929688	273.9654846191406	1165.081176757812	1210.2197265625	60.06941604614258	1365.251220703125	1201.702270507812	316.6163024902344	1312.146362304688	1213.955078125	288.1570739746094	1604.012939453125	1228.026733398438	101.1118011474609	1498.964233398438	1207.484008789062	342.0791931152344	1418.798706054688	1142.715576171875	287.0046997070312	1583.478759765625	1329.866333007812	196.1518402099609	1571.924438476562	1392.692993164062	207.6685943603516	1439.963134765625	1463.722778320312	178.8489532470703	1219.832275390625	1477.0146484375	249.2411346435547	1204.195922851562	1427.17431640625	68.25889587402344	969.1642456054688	1410.784423828125	142.9411163330078	937.3856811523438	1446.0048828125	153.0871887207031	1103.138061523438	1474.717041015625	37.05867004394531	789.6398315429688	1362.139038085938	109.8444900512695	864.5123291015625	1439.912231445312	45.67736434936523	880.3983764648438	1415.054809570312	243.0046234130859	1585.563842773438	1042.75927734375	264.722412109375	1512.553588867188	980.1499633789062	276.3285827636719	1216.920166015625	963.0402221679688	275.2090759277344	1216.925170898438	1059.529541015625	122.353515625	979.673095703125	964.645263671875	199.0558471679688	959.4229125976562	941.4761352539062	251.9088745117188	1144.000122070312	946.1839599609375	88.30024719238281	787.4003295898438	984.65625	88.24653625488281	872.3102416992188	957.3499755859375	158.3395233154297	861.393798828125	935.2621459960938	276.9608764648438	1775.294067382812	1175.731323242188	78.99578094482422	1850.1298828125	1238.555786132812	129.0079040527344	1856.96337890625	1119.617553710938	232.5658416748047	1771.405639648438	1303.575073242188	172.3585815429688	1043.216674804688	1377.7568359375	153.5148162841797	1032.4658203125	1022.245422363281	64.9659423828125	1106.696044921875	1068.05712890625	62.05706024169922	1107.9375	1336.595336914062	172.9368286132812	541.2425537109375	1340.198120117188	187.8770446777344	688.7119750976562	1370.701416015625	293.3121337890625	43.20318222045898	1323.400634765625	277.2314453125	296.4717407226562	1362.407104492188	60.69413757324219	40.66896057128906	1260.3271484375	143.6865997314453	45.96614837646484	1229.423217773438	166.8983917236328	39.81702041625977	1346.541625976562	362.1911010742188	43.80169677734375	1261.765258789062	181.9536285400391	542.5673828125	1052.345947265625	140.5906982421875	820.802001953125	1024.798461914062	294.7102661132812	35.57201766967773	1068.793823242188	212.7193756103516	411.9379272460938	1041.743408203125	67.21366119384766	47.73643493652344	1133.494018554688	129.3761749267578	36.80280303955078	1174.377075195312	159.7592315673828	43.57695007324219	1056.468994140625	354.8045043945312	35.15970611572266	1112.1171875	
2	0.01	270.4160461425781	1132.695434570312	1140.579223632812	266.5682678222656	1134.25537109375	1275.204467773438	273.9836730957031	1165.0947265625	1210.227783203125	60.09488296508789	1365.236694335938	1201.677368164062	316.6262512207031	1312.157592773438	1213.961303710938	288.1654052734375	1604.02392578125	1228.0205078125	101.1195526123047	1498.952392578125	1207.4541015625	342.1168823242188	1418.795043945312	1142.731323242188	286.9839172363281	1583.494018554688	1329.861938476562	196.1269989013672	1571.9345703125	1392.671630859375	207.6309814453125	1439.967651367188	1463.698120117188	178.7854461669922	1219.823974609375	1476.957885742188	249.2086486816406	1204.200073242188	1427.122436523438	68.21925354003906	969.1495361328125	1410.686401367188	142.9058074951172	937.3851928710938	1445.908569335938	153.0411834716797	1103.133422851562	1474.651245117188	36.96550750732422	789.6009521484375	1361.971801757812	109.7978515625	864.50390625	1439.839721679688	45.6103515625	880.3580322265625	1414.975708007812	243.0426330566406	1585.5498046875	1042.74755859375	264.7798767089844	1512.529296875	980.1528930664062	276.3966979980469	1216.898193359375	963.078125	275.2647094726562	1216.911499023438	1059.573120117188	122.4935989379883	979.5855102539062	964.709228515625	199.2341766357422	959.3680419921875	941.5479736328125	252.0034942626953	1143.968383789062	946.2390747070312	88.53536224365234	787.3146362304688	984.7144165039062	88.42551422119141	872.2129516601562	957.3907470703125	158.5076446533203	861.3338012695312	935.3465576171875	276.94775390625	1775.327026367188	1175.657104492188	78.98431396484375	1850.114624023438	1238.524536132812	128.9484100341797	1856.940795898438	1119.568969726562	232.5679931640625	1771.436279296875	1303.512817382812	172.3909454345703	1043.231201171875	1377.774047851562	153.2823181152344	1032.549682617188	1022.04345703125	64.989013671875	1106.684936523438	1068.051391601562	63.00692749023438	1107.36376953125	1336.177856445312	172.8166046142578	541.2239990234375	1340.227661132812	187.8380889892578	688.7052612304688	1370.714111328125	293.3072204589844	43.18445205688477	1323.393676757812	277.1939086914062	296.4701232910156	1362.403686523438	60.70817184448242	40.67368316650391	1260.335693359375	143.7010192871094	45.97182083129883	1229.4248046875	166.8824462890625	39.81259155273438	1346.534423828125	362.1914672851562	43.7833366394043	1261.772705078125	182.0050048828125	542.56103515625	1052.292602539062	140.64892578125	820.8016357421875	1024.775268554688	294.7162170410156	35.50185394287109	1068.718627929688	212.7685394287109	411.9194030761719	1041.677001953125	67.22743225097656	47.74658584594727	1133.484619140625	129.3922576904297	36.8316535949707	1174.352416992188	159.7705841064453	43.56320953369141	1056.440185546875	354.8041076660156	35.12111282348633	1112.095947265625	
3	0.02	270.4529113769531	1132.70263671875	1140.59716796875	266.6015625	1134.269775390625	1275.228515625	274.004638671875	1165.106811523438	1210.242065429688	60.12717819213867	1365.215087890625	1201.64892578125	316.6374816894531	1312.168579101562	1213.970825195312	288.1722412109375	1604.035278320312	1228.013061523438	101.1274566650391	1498.937255859375	1207.417846679688	342.1609191894531	1418.791015625	1142.750610351562	286.9586791992188	1583.50927734375	1329.85693359375	196.0941619873047	1571.941528320312	1392.646118164062	207.5876922607422	1439.968139648438	1463.667724609375	178.7210693359375	1219.810791015625	1476.89208984375	249.1762084960938	1204.2021484375	1427.06201171875	68.19078063964844	969.1242065429688	1410.570190429688	142.8858184814453	937.3779296875	1445.79443359375	152.9988250732422	1103.123657226562	1474.573364257812	36.8763427734375	789.5426025390625	1361.773803710938	109.7643356323242	864.493408203125	1439.753540039062	45.55096054077148	880.3035278320312	1414.880249023438	243.0835266113281	1585.530883789062	1042.7333984375	264.8469848632812	1512.497192382812	980.15673828125	276.4832763671875	1216.87060546875	963.1257934570312	275.3313903808594	1216.894165039062	1059.6259765625	122.6770172119141	979.472412109375	964.78564453125	199.4716491699219	959.3010864257812	941.6363525390625	252.1258697509766	1143.930786132812	946.3048706054688	88.84590911865234	787.204833984375	984.7783203125	88.67115020751953	872.0821533203125	957.4407958984375	158.732421875	861.2530517578125	935.44482421875	276.9250183105469	1775.363647460938	1175.56396484375	78.96855163574219	1850.097412109375	1238.489868164062	128.8711395263672	1856.910522460938	1119.510009765625	232.5699768066406	1771.473022460938	1303.436767578125	172.4281921386719	1043.248046875	1377.800659179688	153.1133117675781	1032.6142578125	1021.879028320312	65.01754760742188	1106.667724609375	1068.048583984375	63.91047286987305	1106.825317382812	1335.783081054688	172.6571655273438	541.1990966796875	1340.271728515625	187.7812194824219	688.6975708007812	1370.732421875	293.3030395507812	43.16206741333008	1323.387329101562	277.1432800292969	296.4650573730469	1362.400756835938	60.7245979309082	40.68046569824219	1260.346313476562	143.7185211181641	45.97933197021484	1229.426879882812	166.8675079345703	39.81265258789062	1346.528930664062	362.1908569335938	43.76180267333984	1261.779663085938	182.0558013916016	542.5520629882812	1052.226684570312	140.7231750488281	820.8018188476562	1024.7490234375	294.7238464355469	35.42445373535156	1068.63427734375	212.8191070556641	411.8912353515625	1041.591552734375	67.24311065673828	47.75945281982422	1133.47314453125	129.4104461669922	36.86550140380859	1174.323852539062	159.7832641601562	43.54799270629883	1056.40576171875	354.8074340820312	35.07245254516602	1112.067260742188	
4	0.03	270.4953918457031	1132.7080078125	1140.6240234375	266.6372375488281	1134.283569335938	1275.260498046875	274.0252380371094	1165.115112304688	1210.264404296875	60.16485977172852	1365.185791015625	1201.619873046875	316.6488037109375	1312.177612304688	1213.984375	288.1755676269531	1604.045288085938	1228.005004882812	101.1352615356445	1498.918090820312	1207.377685546875	342.2078552246094	1418.786987304688	1142.772216796875	286.9304504394531	1583.522216796875	1329.851440429688	196.0546417236328	1571.9423828125	1392.618408203125	207.5428619384766	1439.962524414062	1463.632934570312	178.6658630371094	1219.791870117188	1476.822265625	249.1501159667969	1204.201049804688	1426.997680664062	68.18499755859375	969.0855712890625	1410.444702148438	142.8940124511719	937.3609619140625	1445.67138671875	152.9697113037109	1103.107055664062	1474.489013671875	36.80901336669922	789.4631958007812	1361.559326171875	109.7575454711914	864.4797973632812	1439.66015625	45.51528549194336	880.23388671875	1414.776123046875	243.1226501464844	1585.507568359375	1042.718383789062	264.9176940917969	1512.457763671875	980.161865234375	276.5848083496094	1216.838256835938	963.1807861328125	275.4053039550781	1216.8740234375	1059.684936523438	122.9001693725586	979.3367309570312	964.8674926757812	199.7636871337891	959.2258911132812	941.7352294921875	252.2722625732422	1143.889526367188	946.3765258789062	89.22854614257812	787.0732421875	984.842529296875	88.98218536376953	871.9210205078125	957.4987182617188	159.0148162841797	861.1519775390625	935.5491333007812	276.8889465332031	1775.399047851562	1175.456176757812	78.94907379150391	1850.081176757812	1238.45654296875	128.7778930664062	1856.872924804688	1119.444580078125	232.5701293945312	1771.512817382812	1303.351440429688	172.4665374755859	1043.265991210938	1377.838989257812	152.9844360351562	1032.660888671875	1021.737426757812	65.04953002929688	1106.643676757812	1068.05126953125	64.65652465820312	1106.390502929688	1335.462158203125	172.4623718261719	541.1690063476562	1340.3310546875	187.7045288085938	688.689453125	1370.757080078125	293.3011779785156	43.13911056518555	1323.383544921875	277.0790405273438	296.4559936523438	1362.399047851562	60.74205017089844	40.68920516967773	1260.358032226562	143.7376251220703	45.98808670043945	1229.43017578125	166.8549346923828	39.81889724731445	1346.526733398438	362.1895446777344	43.73965454101562	1261.78515625	182.0957946777344	542.5396728515625	1052.151245117188	140.8101501464844	820.80322265625	1024.72216796875	294.7326049804688	35.34444046020508	1068.546142578125	212.8589477539062	411.8515625	1041.489135742188	67.25990295410156	47.77423095703125	1133.460815429688	129.4301300048828	36.90199661254883	1174.29345703125	159.7957916259766	43.53233337402344	1056.367065429688	354.8167724609375	35.01657485961914	1112.031127929688	
